<?xml version="1.0" standalone="no"?>
<!DOCTYPE svg PUBLIC "-//W3C//DTD SVG 20010904//EN"
 "http://www.w3.org/TR/2001/REC-SVG-20010904/DTD/svg10.dtd">
<svg version="1.0" xmlns="http://www.w3.org/2000/svg"
 width="512.000000pt" height="512.000000pt" viewBox="0 0 512.000000 512.000000"
 preserveAspectRatio="xMidYMid meet">

<g transform="translate(0.000000,512.000000) scale(0.100000,-0.100000)"
fill="#000000" stroke="none">
<path d="M1201 3228 l-173 -518 -61 1 -62 0 -29 60 c-39 83 -117 158 -212 206
-77 38 -79 38 -198 38 -118 0 -123 -1 -197 -36 -356 -170 -356 -668 0 -838 74
-35 79 -36 197 -36 119 0 121 0 198 38 95 48 173 123 212 206 l29 60 170 0
170 1 64 193 64 192 237 -710 c130 -390 239 -705 242 -700 3 6 110 325 238
710 l233 700 237 -710 237 -710 233 700 c128 385 235 704 238 710 3 5 112
-310 242 -700 l237 -710 172 518 173 517 61 -1 62 0 29 -60 c39 -83 117 -158
212 -206 77 -38 79 -38 198 -38 118 0 123 1 197 36 355 170 355 668 0 838 -74
35 -79 36 -197 36 -119 0 -121 0 -198 -38 -95 -48 -173 -123 -212 -206 l-29
-60 -170 0 -170 -1 -64 -192 -64 -193 -237 710 c-130 390 -239 705 -242 700
-3 -6 -110 -325 -238 -710 l-233 -700 -237 710 -237 710 -233 -700 c-128 -385
-235 -704 -238 -710 -3 -5 -112 310 -242 700 l-237 710 -172 -517z m-651 -530
c57 -39 75 -72 75 -138 0 -44 -5 -66 -21 -87 -74 -99 -204 -99 -278 0 -29 40
-29 134 0 174 37 49 82 73 139 73 38 0 61 -6 85 -22z m4190 0 c57 -39 75 -72
75 -138 0 -44 -5 -66 -21 -87 -74 -99 -204 -99 -278 0 -16 21 -21 43 -21 87 0
66 18 99 75 138 24 16 47 22 85 22 38 0 61 -6 85 -22z"/>
</g>
</svg>
