<svg height="512pt" viewBox="0 -157 512.00074 512" width="512pt" xmlns="http://www.w3.org/2000/svg"><path d="m382.054688 91.085938h-9.597657c-3.601562 0-6.699219 2.566406-7.367187 6.109374l-9.808594 52.011719-26.984375-143.097656c-.667969-3.542969-3.765625-6.109375-7.371094-6.109375h-.003906c-3.609375.00390625-6.703125 2.574219-7.363281 6.121094l-26.726563 142.921875-26.953125-142.933594c-.667968-3.542969-3.761718-6.109375-7.367187-6.109375s-6.703125 2.566406-7.371094 6.109375l-26.984375 143.097656-26.984375-143.097656c-.667969-3.542969-3.765625-6.109375-7.371094-6.109375s-6.699219 2.566406-7.367187 6.109375l-16.027344 84.976563h-70.417969c-4.140625 0-7.496093 3.355468-7.496093 7.5 0 4.140624 3.355468 7.496093 7.496093 7.496093h76.636719c3.605469 0 6.699219-2.5625 7.367188-6.105469l9.808593-52.015624 26.988281 143.101562c.667969 3.542969 3.761719 6.105469 7.367188 6.105469s6.699219-2.5625 7.367188-6.105469l26.984374-143.101562 26.988282 143.101562c.667968 3.542969 3.761718 6.105469 7.367187 6.105469h.007813c3.605468 0 6.699218-2.570313 7.363281-6.117188l26.722656-142.921875 26.957031 142.933594c.667969 3.542969 3.761719 6.105469 7.367188 6.105469s6.699219-2.5625 7.367188-6.105469l16.027343-84.976562h3.375c4.144531 0 7.5-3.359376 7.5-7.5 0-4.140626-3.355469-7.5-7.496093-7.5zm0 0"/><path d="m498.519531 110.152344c-3.273437 3.523437-7.71875 5.464844-12.527343 5.464844-9.300782 0-16.875-7.46875-17.046876-16.714844.003907-.105469.015626-.210938.015626-.316406 0-.105469-.011719-.210938-.015626-.316407.171876-9.246093 7.746094-16.714843 17.046876-16.714843 4.933593 0 9.621093 2.128906 12.863281 5.839843 2.726562 3.121094 7.464843 3.4375 10.582031.710938 3.117188-2.726563 3.4375-7.460938.710938-10.578125-6.09375-6.972656-14.898438-10.96875-24.15625-10.96875-15.09375 0-27.777344 10.476562-31.164063 24.527344h-39.410156c-4.140625 0-7.5 3.359374-7.5 7.5 0 4.140624 3.359375 7.5 7.5 7.5h39.410156c3.386719 14.050781 16.070313 24.527343 31.164063 24.527343 8.894531 0 17.46875-3.738281 23.515624-10.261719 2.820313-3.03125 2.640626-7.777343-.394531-10.59375-3.035156-2.820312-7.777343-2.644531-10.59375.394532zm0 0"/><path d="m32.0625 66.558594c-17.679688 0-32.0625 14.367187-32.0625 32.027344 0 17.660156 14.382812 32.027343 32.0625 32.027343 17.675781 0 32.058594-14.367187 32.058594-32.027343.003906-17.660157-14.378906-32.027344-32.058594-32.027344zm0 49.058594c-9.410156 0-17.066406-7.640626-17.066406-17.03125 0-9.390626 7.65625-17.03125 17.066406-17.03125 9.40625 0 17.0625 7.640624 17.0625 17.03125 0 9.390624-7.652344 17.03125-17.0625 17.03125zm0 0"/></svg>